# xmcd CD database file
#
# Track frame offsets:
#	150
#	13602
#	29506
#	54031
#	69352
#	99087
#	114417
#	145021
#	165831
#
# Disc length: 2356 seconds
#
# Revision: 1
# Processed by: cddbd v1.5.2PL0 Copyright (c) Steve Scherf et al.
# Submitted via: CDex 1.70beta2
#
DISCID=5d093209
DTITLE=Gilles Sioui - Gilles Sioui and Midnight Riders
DYEAR=1997
DGENRE=Folk-Rock
TTITLE0=Wendat land
TTITLE1=Big red devil
TTITLE2=Happy trail
TTITLE3=I wanna know
TTITLE4=I might be going wrong
TTITLE5=Analyze it
TTITLE6=Bound for a change
TTITLE7=Kabir kouba
TTITLE8=Mother she knows
EXTD=YEAR: 1997
EXTT0=
EXTT1=
EXTT2=
EXTT3=
EXTT4=
EXTT5=
EXTT6=
EXTT7=
EXTT8=
PLAYORDER=
